#N canvas 154 23 853 780 10;
#X obj 324 564 osc~ 220;
#X floatatom 322 534 5 0 0 0 - - -;
#X obj 480 282 vsl 15 128 0 127 0 0 empty empty empty 0 -9 0 10 -262144
-1 -1 8300 1;
#X obj 476 439 / 127;
#X floatatom 477 472 5 0 0 0 - - -;
#X msg 478 509 \$1 20;
#X obj 477 543 line~;
#X obj 441 672 *~;
#X obj 411 650 *~;
#X obj 427 499 osc~;
#X floatatom 428 467 5 0 0 0 - - -;
#X obj 428 300 vsl 15 128 0 127 0 0 empty empty empty 0 -9 0 10 -262144
-1 -1 10300 1;
#X obj 273 -13 notein;
#X floatatom 277 426 5 0 0 0 - - -;
#X floatatom 324 400 5 0 0 0 - - -;
#X obj 321 504 mtof;
#X obj 442 694 dac~;
#X obj 284 371 stripnote;
#X obj 231 431 bng 15 250 50 0 empty empty empty 17 7 0 10 -262144
-1 -1;
#X obj 367 394 sel 0;
#X obj 368 435 0;
#X text 344 346 comment;
#X text 496 342 comment;
#X text 545 500 comment;
#X text 481 658 comment;
#X obj 269 310 borax --------;
#X obj 234 31 t f f;
#X obj 308 53 >= 72;
#X obj 256 82 pack;
#X obj 306 87 + 1;
#X obj 308 118 gate 2;
#X obj 302 200 unpack;
#X obj 378 141 unpack;
#X obj 377 176 stripnote;
#X obj 376 210 % 12;
#X obj 383 240 * 7;
#X obj 464 243 ctlin 91;
#X connect 0 0 8 0;
#X connect 1 0 0 0;
#X connect 2 0 3 0;
#X connect 3 0 4 0;
#X connect 4 0 5 0;
#X connect 5 0 6 0;
#X connect 6 0 7 1;
#X connect 7 0 16 0;
#X connect 8 0 7 0;
#X connect 9 0 8 1;
#X connect 10 0 9 0;
#X connect 11 0 10 0;
#X connect 12 0 26 0;
#X connect 12 1 28 1;
#X connect 13 0 15 0;
#X connect 15 0 1 0;
#X connect 17 0 13 0;
#X connect 17 0 18 0;
#X connect 17 1 14 0;
#X connect 18 0 3 0;
#X connect 19 0 20 0;
#X connect 20 0 4 0;
#X connect 25 2 19 0;
#X connect 25 3 17 0;
#X connect 25 4 17 1;
#X connect 26 0 28 0;
#X connect 26 1 27 0;
#X connect 27 0 29 0;
#X connect 28 0 30 1;
#X connect 29 0 30 0;
#X connect 30 0 31 0;
#X connect 30 1 32 0;
#X connect 31 0 25 0;
#X connect 31 1 25 1;
#X connect 32 0 33 0;
#X connect 32 1 33 1;
#X connect 33 0 34 0;
#X connect 34 0 35 0;
#X connect 35 0 11 0;
#X connect 36 0 2 0;
