#N canvas 135 23 1305 737 10;
#X obj 84 201 osc~ 220;
#X floatatom 83 159 5 0 0 0 - - -;
#X obj 213 -9 vsl 15 128 0 127 0 0 empty empty empty 0 -9 0 10 -262144
-1 -1 0 1;
#X obj 213 139 / 127;
#X floatatom 214 172 5 0 0 0 - - -;
#X msg 215 209 \$1 20;
#X obj 214 243 line~;
#X obj 185 315 *~;
#X obj 149 247 *~;
#X obj 164 199 osc~;
#X floatatom 165 167 5 0 0 0 - - -;
#X obj 165 -11 vsl 15 128 0 127 0 0 empty empty empty 0 -9 0 10 -262144
-1 -1 400 1;
#X text 218 358 comment;
#X text 282 200 comment;
#X text 233 42 comment;
#X text 81 46 comment;
#X floatatom 273 183 5 0 0 0 - - -;
#X obj 403 15 vsl 15 128 0 127 0 0 empty empty empty 0 -9 0 10 -262144
-1 -1 0 1;
#X obj 403 163 / 127;
#X floatatom 404 196 5 0 0 0 - - -;
#X msg 405 233 \$1 20;
#X obj 404 267 line~;
#X obj 375 339 *~;
#X obj 339 271 *~;
#X obj 354 223 osc~;
#X floatatom 355 191 5 0 0 0 - - -;
#X obj 355 13 vsl 15 128 0 127 0 0 empty empty empty 0 -9 0 10 -262144
-1 -1 400 1;
#X text 271 70 comment;
#X text 423 66 comment;
#X text 472 224 comment;
#X obj 274 225 osc~ 440;
#X floatatom 483 227 5 0 0 0 - - -;
#X obj 612 60 vsl 15 128 0 127 0 0 empty empty empty 0 -9 0 10 -262144
-1 -1 0 1;
#X obj 613 207 / 127;
#X floatatom 614 240 5 0 0 0 - - -;
#X msg 615 277 \$1 20;
#X obj 614 311 line~;
#X obj 585 383 *~;
#X obj 549 315 *~;
#X obj 564 267 osc~;
#X floatatom 565 235 5 0 0 0 - - -;
#X obj 565 57 vsl 15 128 0 127 0 0 empty empty empty 0 -9 0 10 -262144
-1 -1 0 1;
#X text 633 110 comment;
#X text 481 114 comment;
#X text -12 424 comment;
#X obj 484 269 osc~ 880;
#X floatatom -21 421 5 0 0 0 - - -;
#X obj 109 253 vsl 15 128 0 127 0 0 empty empty empty 0 -9 0 10 -262144
-1 -1 0 1;
#X obj 109 401 / 127;
#X floatatom 110 434 5 0 0 0 - - -;
#X msg 111 471 \$1 20;
#X obj 110 505 line~;
#X obj 81 577 *~;
#X obj 45 509 *~;
#X obj 60 461 osc~;
#X floatatom 61 429 5 0 0 0 - - -;
#X obj 61 251 vsl 15 128 0 127 0 0 empty empty empty 0 -9 0 10 -262144
-1 -1 100 1;
#X obj -20 463 osc~ 110;
#X text -23 308 comment;
#X text 129 304 comment;
#X text -98 158 comment;
#X text 114 620 comment;
#X obj 75 626 dac~;
#X obj 580 413 dac~;
#X obj 379 371 dac~;
#X obj 179 364 dac~;
#X floatatom -102 117 5 0 0 0 - - -;
#X obj 28 -51 vsl 15 128 0 127 0 0 empty empty empty 0 -9 0 10 -262144
-1 -1 0 1;
#X obj 28 97 / 127;
#X floatatom 29 130 5 0 0 0 - - -;
#X msg 30 167 \$1 20;
#X obj 29 201 line~;
#X obj 0 273 *~;
#X obj -36 205 *~;
#X obj -21 157 osc~;
#X floatatom -20 125 5 0 0 0 - - -;
#X obj -20 -53 vsl 15 128 0 127 0 0 empty empty empty 0 -9 0 10 -262144
-1 -1 200 1;
#X obj -6 322 dac~;
#X text -104 4 comment;
#X text 48 0 comment;
#X text 33 316 comment;
#X obj -101 159 osc~ 330;
#X text -93 120 comment;
#X floatatom 692 246 5 0 0 0 - - -;
#X obj 822 78 vsl 15 128 0 127 0 0 empty empty empty 0 -9 0 10 -262144
-1 -1 0 1;
#X obj 822 226 / 127;
#X floatatom 823 259 5 0 0 0 - - -;
#X msg 824 296 \$1 20;
#X obj 823 330 line~;
#X obj 794 402 *~;
#X obj 758 334 *~;
#X obj 773 286 osc~;
#X floatatom 774 254 5 0 0 0 - - -;
#X obj 774 76 vsl 15 128 0 127 0 0 empty empty empty 0 -9 0 10 -262144
-1 -1 900 1;
#X obj 788 451 dac~;
#X text 701 249 comment;
#X text 690 133 comment;
#X text 842 129 comment;
#X text 827 445 comment;
#X obj 693 288 osc~ 1320;
#X obj 380 281 *~;
#X obj 330 341 vsl 15 128 0 127 0 0 empty empty empty 0 -9 0 10 -262144
-1 -1 0 1;
#X obj 330 489 / 127;
#X floatatom 331 522 5 0 0 0 - - -;
#X msg 332 559 \$1 20;
#X obj 331 593 line~;
#X obj 302 665 *~;
#X obj 266 597 *~;
#X obj 281 549 osc~;
#X floatatom 282 517 5 0 0 0 - - -;
#X obj 282 335 vsl 15 128 0 127 0 0 empty empty empty 0 -9 0 10 -262144
-1 -1 100 1;
#X text 360 338 comment;
#X text 353 715 comment;
#X obj 296 714 dac~;
#X text 204 510 comment;
#X floatatom 195 507 5 0 0 0 - - -;
#X obj 208 548 osc~ 110;
#X text 408 382;
#X text 264 350;
#X obj 521 323 vsl 15 128 0 127 0 0 empty empty empty 0 -9 0 10 -262144
-1 -1 0 1;
#X obj 521 475 / 127;
#X floatatom 522 508 5 0 0 0 - - -;
#X msg 523 545 \$1 20;
#X obj 522 579 line~;
#X obj 493 651 *~;
#X obj 457 583 *~;
#X obj 472 535 osc~;
#X floatatom 473 503 5 0 0 0 - - -;
#X obj 474 329 vsl 15 128 0 127 0 0 empty empty empty 0 -9 0 10 -262144
-1 -1 100 1;
#X text 526 694 comment;
#X obj 487 700 dac~;
#X text 395 496 comment;
#X floatatom 386 493 5 0 0 0 - - -;
#X obj 399 534 osc~ 110;
#X text 618 426;
#X connect 0 0 8 0;
#X connect 1 0 0 0;
#X connect 2 0 3 0;
#X connect 3 0 4 0;
#X connect 4 0 5 0;
#X connect 5 0 6 0;
#X connect 6 0 7 1;
#X connect 7 0 65 0;
#X connect 8 0 7 0;
#X connect 9 0 8 1;
#X connect 10 0 9 0;
#X connect 11 0 10 0;
#X connect 16 0 30 0;
#X connect 17 0 18 0;
#X connect 18 0 19 0;
#X connect 19 0 20 0;
#X connect 20 0 21 0;
#X connect 21 0 22 1;
#X connect 22 0 64 0;
#X connect 23 0 22 0;
#X connect 24 0 23 1;
#X connect 25 0 24 0;
#X connect 26 0 25 0;
#X connect 30 0 23 0;
#X connect 31 0 45 0;
#X connect 32 0 33 0;
#X connect 33 0 34 0;
#X connect 34 0 35 0;
#X connect 35 0 36 0;
#X connect 36 0 37 1;
#X connect 37 0 63 0;
#X connect 38 0 37 0;
#X connect 39 0 38 1;
#X connect 40 0 39 0;
#X connect 41 0 40 0;
#X connect 45 0 38 0;
#X connect 46 0 57 0;
#X connect 47 0 48 0;
#X connect 48 0 49 0;
#X connect 49 0 50 0;
#X connect 50 0 51 0;
#X connect 51 0 52 1;
#X connect 52 0 62 0;
#X connect 53 0 52 0;
#X connect 54 0 53 1;
#X connect 55 0 54 0;
#X connect 56 0 55 0;
#X connect 57 0 53 0;
#X connect 66 0 81 0;
#X connect 67 0 68 0;
#X connect 68 0 69 0;
#X connect 69 0 70 0;
#X connect 70 0 71 0;
#X connect 71 0 72 1;
#X connect 72 0 77 0;
#X connect 73 0 72 0;
#X connect 74 0 73 1;
#X connect 75 0 74 0;
#X connect 76 0 75 0;
#X connect 81 0 73 0;
#X connect 83 0 99 0;
#X connect 84 0 85 0;
#X connect 85 0 86 0;
#X connect 86 0 87 0;
#X connect 87 0 88 0;
#X connect 88 0 89 1;
#X connect 89 0 94 0;
#X connect 90 0 89 0;
#X connect 91 0 90 1;
#X connect 92 0 91 0;
#X connect 93 0 92 0;
#X connect 99 0 90 0;
#X connect 101 0 102 0;
#X connect 102 0 103 0;
#X connect 103 0 104 0;
#X connect 104 0 105 0;
#X connect 105 0 106 1;
#X connect 106 0 113 0;
#X connect 107 0 106 0;
#X connect 108 0 107 1;
#X connect 109 0 108 0;
#X connect 110 0 109 0;
#X connect 115 0 116 0;
#X connect 116 0 107 0;
#X connect 119 0 120 0;
#X connect 120 0 121 0;
#X connect 121 0 122 0;
#X connect 122 0 123 0;
#X connect 123 0 124 1;
#X connect 124 0 130 0;
#X connect 125 0 124 0;
#X connect 126 0 125 1;
#X connect 127 0 126 0;
#X connect 128 0 127 0;
#X connect 132 0 133 0;
#X connect 133 0 125 0;
