#N canvas 0 23 1309 781 10;
#X obj 246 886 soundfiler;
#N canvas 0 22 450 278 (subpatch) 0;
#X array array1 2.91117e+06 float 2;
#X coords 0 1 2.91117e+06 -1 200 140 1;
#X restore 424 773 graph;
#X obj 246 777 bng 15 250 50 0 empty empty empty 17 7 0 10 -262144
-1 -1;
#X obj 246 803 openpanel;
#X msg 246 858 read -resize \$1 array1;
#X obj 246 914 expr 44100 / $f1;
#X floatatom 246 942 5 0 0 0 - - -;
#X obj 246 970 * 1;
#X obj 246 999 phasor~;
#X obj 246 1030 *~;
#X obj 246 1059 tabread4~ array1;
#X floatatom 374 1010 5 0 0 0 - - -;
#X msg 374 1036 \$1 20;
#X obj 374 1060 line~;
#X obj 246 1085 *~;
#X obj 246 1111 dac~;
#X obj 326 950 t b f;
#X obj 398 949 hsl 128 15 -10 10 0 0 empty empty empty -2 -8 0 10 -262144
-1 -1 0 1;
#X text 421 968 playback speed;
#X text 390 968 -10;
#X obj 852 858 soundfiler;
#N canvas 0 22 450 278 (subpatch) 0;
#X array array2 88193 float 2;
#X coords 0 1 88193 -1 200 140 1;
#X restore 1030 745 graph;
#X obj 852 749 bng 15 250 50 0 empty empty empty 17 7 0 10 -262144
-1 -1;
#X obj 852 775 openpanel;
#X obj 852 886 expr 44100 / $f1;
#X floatatom 852 914 5 0 0 0 - - -;
#X obj 852 942 * 1;
#X obj 852 971 phasor~;
#X obj 852 1002 *~;
#X floatatom 980 982 5 0 0 0 - - -;
#X msg 980 1008 \$1 20;
#X obj 980 1032 line~;
#X obj 852 1057 *~;
#X obj 852 1083 dac~;
#X obj 932 922 t b f;
#X obj 1000 921 hsl 128 15 -2 2 0 0 empty empty empty -2 -8 0 10 -262144
-1 -1 0 1;
#X text 1027 940 playback speed;
#X obj 852 1031 tabread4~ array2;
#X msg 852 830 read -resize \$1 array2;
#X text 996 940 -2;
#X text 1124 940 2;
#X obj 648 496 osc~ 220;
#X floatatom 646 466 5 0 0 0 - - -;
#X obj 804 214 vsl 15 128 0 127 0 0 empty empty empty 0 -9 0 10 -262144
-1 -1 0 1;
#X obj 800 371 / 127;
#X floatatom 801 404 5 0 0 0 - - -;
#X msg 802 441 \$1 20;
#X obj 801 475 line~;
#X obj 765 604 *~;
#X obj 735 582 *~;
#X obj 751 431 osc~;
#X floatatom 752 399 5 0 0 0 - - -;
#X obj 747 227 vsl 15 128 0 127 0 0 empty empty empty 0 -9 0 10 -262144
-1 -1 0 1;
#X obj 597 -81 notein;
#X floatatom 601 358 5 0 0 0 - - -;
#X floatatom 648 332 5 0 0 0 - - -;
#X obj 645 436 mtof;
#X obj 762 1030 dac~;
#X obj 608 303 stripnote;
#X obj 691 326 sel 0;
#X obj 692 367 0;
#X obj 593 242 borax --------;
#X obj 566 -49 t f f;
#X obj 632 -15 >= 72;
#X obj 580 14 pack;
#X obj 630 19 + 1;
#X obj 632 50 gate 2;
#X obj 626 132 unpack;
#X obj 702 73 unpack;
#X obj 701 108 stripnote;
#X obj 700 142 % 12;
#X obj 707 172 * 7;
#X obj 788 175 ctlin 91;
#X text 805 590 comment;
#X text 869 432 comment;
#X text 820 274 comment;
#X text 668 278 comment;
#X text 518 967 10;
#X obj 414 657 sel 60;
#X obj 632 663 sel 62;
#X connect 0 0 5 0;
#X connect 0 0 9 1;
#X connect 2 0 3 0;
#X connect 3 0 4 0;
#X connect 4 0 0 0;
#X connect 5 0 6 0;
#X connect 6 0 7 0;
#X connect 7 0 8 0;
#X connect 8 0 9 0;
#X connect 9 0 10 0;
#X connect 10 0 14 0;
#X connect 11 0 12 0;
#X connect 12 0 13 0;
#X connect 13 0 14 1;
#X connect 14 0 15 0;
#X connect 14 0 15 1;
#X connect 16 0 6 0;
#X connect 16 1 7 1;
#X connect 17 0 16 0;
#X connect 20 0 24 0;
#X connect 20 0 28 1;
#X connect 22 0 23 0;
#X connect 23 0 38 0;
#X connect 24 0 25 0;
#X connect 25 0 26 0;
#X connect 26 0 27 0;
#X connect 27 0 28 0;
#X connect 28 0 37 0;
#X connect 29 0 30 0;
#X connect 30 0 31 0;
#X connect 31 0 32 1;
#X connect 32 0 33 0;
#X connect 32 0 33 1;
#X connect 34 0 25 0;
#X connect 34 1 26 1;
#X connect 35 0 34 0;
#X connect 37 0 32 0;
#X connect 38 0 20 0;
#X connect 41 0 49 0;
#X connect 42 0 41 0;
#X connect 43 0 44 0;
#X connect 44 0 45 0;
#X connect 45 0 46 0;
#X connect 46 0 47 0;
#X connect 47 0 48 1;
#X connect 48 0 57 0;
#X connect 49 0 48 0;
#X connect 50 0 49 1;
#X connect 51 0 50 0;
#X connect 52 0 51 0;
#X connect 53 0 62 0;
#X connect 53 0 78 0;
#X connect 53 0 79 0;
#X connect 53 1 64 1;
#X connect 54 0 56 0;
#X connect 56 0 42 0;
#X connect 58 0 54 0;
#X connect 58 1 55 0;
#X connect 59 0 60 0;
#X connect 60 0 45 0;
#X connect 61 2 59 0;
#X connect 61 3 58 0;
#X connect 61 4 58 1;
#X connect 62 0 64 0;
#X connect 62 1 63 0;
#X connect 63 0 65 0;
#X connect 64 0 66 1;
#X connect 65 0 66 0;
#X connect 66 0 67 0;
#X connect 66 1 68 0;
#X connect 67 0 61 0;
#X connect 67 1 61 1;
#X connect 68 0 69 0;
#X connect 68 1 69 1;
#X connect 69 0 70 0;
#X connect 70 0 71 0;
#X connect 71 0 52 0;
#X connect 72 0 43 0;
#X connect 78 0 2 0;
#X connect 79 0 22 0;
